<svg xmlns="http://www.w3.org/2000/svg" width="57.3" height="56" viewBox="0 0 57.3 56"><g fill="none" stroke="#010101" stroke-width="2" stroke-linejoin="round" stroke-miterlimit="10"><path d="M1 33.7h9.6V53H1z"/><path stroke-linecap="round" d="M10.6 49.3c25.3 8.4 16.8 8.4 45.7-6-2.6-2.6-4.6-3.2-7.2-2.4l-10.7 3.5"/><path stroke-linecap="round" d="M10.6 36.1h7.2c5.7 0 9.6 3.6 10.8 4.8h7.2c3.8 0 3.8 4.8 0 4.8H22.6"/></g><g fill="none" stroke="#010101" stroke-width="2" stroke-linecap="round" stroke-linejoin="round" stroke-miterlimit="10"><circle cx="33.5" cy="16.6" r="15.6"/><path d="M33.5 23.3v2.2M33.5 7.8V10M30.1 20c0 1.8 1.5 3.3 3.3 3.3 1.8 0 3.3-1.5 3.3-3.3 0-1.8-1.5-3.3-3.3-3.3-1.8 0-3.3-1.5-3.3-3.3 0-1.8 1.5-3.3 3.3-3.3 1.8 0 3.3 1.5 3.3 3.3"/></g></svg>