<svg xmlns="http://www.w3.org/2000/svg" width="24" height="24" viewBox="0 0 24 24"><path fill="#666" d="M18.5 7.4s-1.4.1-2 .3c-.5-.5-1.2-.8-1.9-.8C13.2 6.8 12 8 12 9.4c0 .2 0 .4.1.6-2.2-.1-4.2-1.1-5.5-2.7-.2.4-.3.8-.3 1.3 0 .9.5 1.7 1.2 2.2-.4 0-.8-.1-1.2-.3 0 1.3.9 2.3 2.1 2.6-.4.1-.8.1-1.2 0 .3 1 1.3 1.8 2.5 1.8-1.1.9-2.5 1.2-3.9 1.1 1.2.7 2.5 1.2 4 1.2 4.8 0 7.5-4 7.5-7.5v-.3c.5-.4.8-1.5 1.2-2z"/><circle fill="none" stroke="#666" stroke-linecap="round" stroke-linejoin="round" stroke-miterlimit="10" cx="12" cy="12" r="11.5"/></svg>