<svg id="Layer_1" data-name="Layer 1" xmlns="http://www.w3.org/2000/svg" viewBox="0 0 64 64"><defs><style>.cls-1{fill:#55acee;}</style></defs><title>Untitled-2</title><path class="cls-1" d="M32,0A32,32,0,1,0,64,32,32,32,0,0,0,32,0ZM46,25c0,0.3,0,.6,0,0.91,0,9.27-7.06,20-20,20a19.87,19.87,0,0,1-10.76-3.16,14.11,14.11,0,0,0,10.39-2.9A7,7,0,0,1,19.16,35a7,7,0,0,0,3.17-.12A7,7,0,0,1,16.7,28V27.88a7,7,0,0,0,3.18.88,7,7,0,0,1-2.17-9.37,19.9,19.9,0,0,0,14.47,7.33,7,7,0,0,1,12-6.4c1.6-.32,5.2-0.71,5.2-0.71C48.39,21,47.4,24,46,25Z"/></svg>