<svg xmlns="http://www.w3.org/2000/svg" width="55.9" height="56" viewBox="0 0 55.9 56"><g fill="none" stroke="#010101" stroke-width="2" stroke-linejoin="round" stroke-miterlimit="10"><path d="M1 17.4v7c0 1.9.4 3.5 2.3 3.5v10.5h7V27.9c1.9 0 2.3-1.6 2.3-3.5v-7H1zM43.2 17.4v7c0 1.9.4 3.5 2.3 3.5v10.5h7V27.9c1.9 0 2.3-1.6 2.3-3.5v-7H43.2zM19.7 17.4h16.4v11.7c0 2.6-2.1 4.7-4.7 4.7v14.1h-7V33.8c-2.6 0-4.7-2.1-4.7-4.7V17.4zM10.4 9.2c0 1.9-1.6 3.5-3.5 3.5s-3.5-1.6-3.5-3.5S5 5.7 6.9 5.7s3.5 1.6 3.5 3.5zM52.5 9.2c0 1.9-1.6 3.5-3.5 3.5s-3.5-1.6-3.5-3.5 1.6-3.5 3.5-3.5c2 0 3.5 1.6 3.5 3.5zM33.8 6.9c0 3.2-2.6 5.9-5.9 5.9-3.2 0-5.9-2.6-5.9-5.9C22 3.7 24.6 1 27.9 1c3.3 0 5.9 2.6 5.9 5.9z"/><path stroke-linecap="round" d="M39.6 46.1c9 .8 15.2 2.4 15.2 4.2 0 2.6-12.1 4.7-26.9 4.7C13.1 55 1 52.9 1 50.3c0-1.9 6.2-3.4 15.1-4.2"/></g></svg>