<svg xmlns="http://www.w3.org/2000/svg" width="84.9" height="56" viewBox="0 0 84.9 56"><path fill="none" stroke="#010101" stroke-width="2" stroke-linecap="round" stroke-linejoin="round" stroke-miterlimit="10" d="M76.5 24.6v26.6c0 2.1-1.7 3.8-3.8 3.8h-21c-2.1 0-3.8-1.7-3.8-3.8V15c0-2.1 1.7-3.8 3.8-3.8h20.9c2.1 0 3.8 1.7 3.8 3.8v1.9M74.6 18.8H47.9M76.5 47.4H47.9M57.5 15H67"/><path fill="#010101" d="M62.2 50c-.7 0-1.2.5-1.2 1.2s.5 1.2 1.2 1.2 1.2-.5 1.2-1.2-.5-1.2-1.2-1.2z"/><path fill="none" stroke="#010101" stroke-width="2" stroke-linecap="round" stroke-linejoin="round" stroke-miterlimit="10" d="M64.1 36.9l-5.7 1.9 1.9-5.7 19-19c1.1-1.1 2.8-1.1 3.8 0 1.1 1.1 1.1 2.8 0 3.8l-19 19zM61.4 32.3l3.4 3.5"/><g fill="none" stroke="#010101" stroke-width="2" stroke-linecap="round" stroke-linejoin="round" stroke-miterlimit="10"><path d="M57.3 3.8c-.6-1.7-2.1-2.8-4-2.8H5.2C2.9 1 1 3 1 5.5v33.2c0 2.5 1.9 4.5 4.2 4.5h33.3M38.5 48.8H19.8M29.2 43.2v5.6M38.5 31.9H1"/></g></svg>