<svg xmlns="http://www.w3.org/2000/svg" width="280" height="558" viewBox="0 0 280 558">
  <path fill="#CCC" d="M280 554c0 2.2-1.8 4-4 4H4c-2.2 0-4-1.8-4-4v-32c0-2.2 1.8-4 4-4h272c2.2 0 4 1.8 4 4v32z"/>
  <path fill="#FFF" d="M0 40h280v498H0z"/>
  <path fill="#CCC" d="M0 20h280v20H0z"/>
  <path fill="#CCC" d="M280 36c0 2.2-1.8 4-4 4H4c-2.2 0-4-1.8-4-4V4c0-2.2 1.8-4 4-4h272c2.2 0 4 1.8 4 4v32z"/>
  <path fill="#FFF" d="M228 28.5c0 2.2-1.7 4-4 4H24c-2 0-4-1.8-4-4v-17c0-2.2 2-4 4-4h200c2.3 0 4 1.8 4 4v17z"/>
  <g fill="none" stroke="#FFF" stroke-width="2" stroke-linecap="round" stroke-miterlimit="10">
    <path d="M244 20h16M244 25h16M244 15h16"/>
  </g>
</svg>