<!-- <svg xmlns="http://www.w3.org/2000/svg" viewBox="0 0 480 638.4">
  <defs>
    <g id="ui-iphone-w-shadow">
      <path fill="red" d="M279.8.4L359 79.2v559.2H83l-83-83V.4"/>
      <path fill="#CCC" d="M280 554c0 2.2-1.8 4-4 4H4c-2.2 0-4-1.8-4-4v-32c0-2.2 1.8-4 4-4h272c2.2 0 4 1.8 4 4v32z"/>
      <path fill="#FFF" d="M0 40h280v498H0z"/>
      <path fill="#CCC" d="M0 20h280v20H0z"/>
      <path fill="#CCC" d="M280 36c0 2.2-1.8 4-4 4H4c-2.2 0-4-1.8-4-4V4c0-2.2 1.8-4 4-4h272c2.2 0 4 1.8 4 4v32z"/>
      <path fill="#FFF" d="M228 28.5c0 2.2-1.7 4-4 4H24c-2 0-4-1.8-4-4v-17c0-2.2 2-4 4-4h200c2.3 0 4 1.8 4 4v17z"/>
      <g fill="none" stroke="#FFF" stroke-width="2" stroke-linecap="round" stroke-miterlimit="10">
        <path d="M244 20h16M244 25h16M244 15h16"/>
      </g>
    </g>
  </defs>
  <use x="120" y="80" xlink:href="#ui-iphone-w-shadow" />
  <use x="0" y="0" xlink:href="#ui-iphone-w-shadow" />
</svg> -->

<svg xmlns="http://www.w3.org/2000/svg" viewBox="0 0 559 718.4">
  <defs>
    <filter id="blurFilter" x="0" y="0">
      <feGaussianBlur in="SourceGraphic" stdDeviation="30"/>
    </filter>
    <clipPath id="drop-shadow">
      <path d="M279.8.4L359 79.2v559.2H83l-83-83V.4"/>
    </clipPath>
    <g id="ui-iphone-w-shadow">
      <path fill="#000" fill-opacity=".33" d="M0 0h280v558H0z" clip-path="url(#drop-shadow)" style="filter: url(#blurFilter);" />
      <path fill="#CCC" d="M280 554c0 2.2-1.8 4-4 4H4c-2.2 0-4-1.8-4-4v-32c0-2.2 1.8-4 4-4h272c2.2 0 4 1.8 4 4v32z"/>
      <path fill="#FFF" d="M0 40h280v498H0z"/>
      <path fill="#CCC" d="M0 20h280v20H0z"/>
      <path fill="#CCC" d="M280 36c0 2.2-1.8 4-4 4H4c-2.2 0-4-1.8-4-4V4c0-2.2 1.8-4 4-4h272c2.2 0 4 1.8 4 4v32z"/>
      <path fill="#FFF" d="M228 28.5c0 2.2-1.7 4-4 4H24c-2 0-4-1.8-4-4v-17c0-2.2 2-4 4-4h200c2.3 0 4 1.8 4 4v17z"/>
      <g fill="none" stroke="#FFF" stroke-width="2" stroke-linecap="round" stroke-miterlimit="10">
        <path d="M244 20h16M244 25h16M244 15h16"/>
      </g>
    </g>
  </defs>
  <g class="ui-phone ui-phone--back" transform="translate(120,80)">
    <use xlink:href="#ui-iphone-w-shadow" />
    <path class="ui-phone__screen" fill="#fff" d="M0 40h280v498H0z"/>
  </g>
  <g class="ui-phone ui-phone--front">
    <use x="0" y="0" xlink:href="#ui-iphone-w-shadow" />
    <path class="ui-phone__screen" fill="#fff" d="M0 40h280v498H0z"/>
  </g>
</svg>