<svg class="ui-splash--iphone" xmlns="http://www.w3.org/2000/svg" xmlns:xlink="http://www.w3.org/1999/xlink" viewBox="0 0 340 630">
  <defs>
    <filter id="blurFilter01" x="0" y="0">
      <feGaussianBlur in="SourceGraphic" stdDeviation="30"/>
    </filter>
    <clipPath id="dropShadow01">
      <path d="M279.8.4L359 79.2v559.2H83l-83-83V.4"/>
    </clipPath>
    <g id="seekout-url">
      <path fill="#AAA" d="M6.1 9.1L5 5.3c-.1-.2-.2-.7-.5-1.5-.2.7-.3 1.2-.4 1.6L2.9 9.1H1.8L0 2.7h1c.4 1.6.7 2.8 1 3.7s.3 1.4.4 1.7c0-.2.1-.5.2-.9s.2-.6.2-.8L4 2.7h1.1l1.1 3.7c.2.7.4 1.2.4 1.7 0-.1.1-.4.1-.7s.5-1.9 1.2-4.7h1L7.3 9.1H6.1zM15.5 9.1l-1.2-3.8c-.1-.2-.2-.8-.4-1.6-.2.7-.3 1.2-.4 1.6l-1.2 3.8h-1.1L9.3 2.7h1c.4 1.6.7 2.8.9 3.7s.3 1.4.4 1.7c0-.2.1-.5.2-.9s.2-.6.2-.8l1.2-3.7h1.1l1.1 3.7c.2.7.4 1.2.4 1.7 0-.1.1-.4.1-.7s.5-1.9 1.2-4.7h1l-1.8 6.4h-.8zM24.8 9.1l-1.2-3.8c-.1-.2-.2-.8-.4-1.6-.2.8-.3 1.3-.4 1.7l-1.2 3.8h-1.1l-1.8-6.4h1c.4 1.6.7 2.8.9 3.7s.4 1.3.4 1.6c0-.2.1-.5.2-.9s.2-.6.2-.8l1.2-3.7h1.1l1.1 3.7c.2.7.4 1.2.4 1.7 0-.1.1-.4.1-.7s.5-1.9 1.2-4.7h1L26 9.1h-1.2zM28.8 8.5c0-.3.1-.5.2-.6s.3-.2.5-.2.4.1.5.2.2.3.2.6-.1.4-.2.6-.3.2-.5.2-.4-.1-.5-.2-.2-.3-.2-.6z"/>
      <path fill="#333" d="M37.1 6.8c0 .8-.3 1.3-.8 1.8s-1.3.6-2.3.6c-1 0-1.8-.1-2.3-.4v-1c.3.2.7.3 1.1.4s.8.1 1.2.1c.7 0 1.2-.1 1.5-.4s.5-.6.5-1.1c0-.3-.1-.5-.2-.7s-.3-.4-.6-.5-.6-.3-1.2-.5c-.8-.3-1.4-.6-1.7-1s-.5-.9-.5-1.5c0-.7.2-1.2.7-1.6s1.2-.6 2-.6c.9 0 1.6.2 2.3.5l-.3.9c-.7-.3-1.4-.4-2.1-.4-.5 0-.9.1-1.2.3s-.4.5-.4.9c0 .3.1.5.2.7s.3.4.6.5.7.3 1.2.5c.9.3 1.5.7 1.9 1s.4 1 .4 1.5zM41.4 9.2c-.9 0-1.7-.3-2.2-.9S38.3 7 38.3 6c0-1 .3-1.9.8-2.5s1.2-.9 2.1-.9c.8 0 1.4.3 1.9.8s.7 1.2.7 2.1v.6h-4.4c0 .8.2 1.3.6 1.7s.9.6 1.5.6c.7 0 1.4-.1 2.1-.4v.9c-.3.1-.7.3-1 .3h-1.2zm-.3-5.8c-.5 0-.9.2-1.2.5s-.5.8-.5 1.4h3.4c0-.6-.1-1.1-.4-1.4s-.8-.5-1.3-.5zM48.1 9.2c-.9 0-1.7-.3-2.2-.9S45.1 7 45.1 6c0-1 .3-1.9.8-2.5s1.2-.9 2.1-.9c.8 0 1.4.3 1.9.8s.7 1.2.7 2.1v.6h-4.4c0 .8.2 1.3.6 1.7s.9.6 1.5.6c.7 0 1.4-.1 2.1-.4v.9c-.3.1-.7.3-1 .3h-1.3zm-.2-5.8c-.5 0-.9.2-1.2.5s-.5.8-.5 1.4h3.4c0-.6-.1-1.1-.4-1.4s-.8-.5-1.3-.5zM53.1 5.8c.2-.2.4-.6.8-.9L56 2.7h1.2l-2.6 2.7 2.8 3.7h-1.2l-2.3-3-.7.6v2.4h-1V0h1v4.8c-.1.2-.1.6-.1 1zM66 4.8c0 1.4-.3 2.4-1 3.2s-1.7 1.2-2.9 1.2c-1.3 0-2.2-.4-2.9-1.2s-1-1.9-1-3.3.3-2.5 1-3.2S60.9.3 62.1.3s2.2.4 2.9 1.2 1 1.9 1 3.3zm-6.8 0c0 1.2.2 2 .7 2.6s1.2.9 2.2.9c.9 0 1.7-.3 2.2-.9S65 6 65 4.8c0-1.2-.2-2-.7-2.6s-1.3-.9-2.2-.9c-.9 0-1.7.3-2.2.9s-.7 1.5-.7 2.6zM68.7 2.7v4.2c0 .5.1.9.4 1.2s.6.4 1.1.4c.7 0 1.2-.2 1.5-.6s.5-1 .5-1.8V2.7h1v6.4h-.8l-.1-.9h-.1c-.2.3-.5.6-.8.7s-.8.3-1.2.3c-.8 0-1.4-.2-1.8-.6s-.6-1-.6-1.8V2.7h.9zM77.2 8.4h.5s.3-.1.4-.1V9c-.1.1-.3.1-.5.1H77c-1.2 0-1.9-.7-1.9-2V3.5h-.9V3l.9-.4.4-1.4h.6v1.5H78v.8h-1.9v3.8c0 .4.1.7.3.9s.5.2.8.2zM79.2 8.5c0-.3.1-.5.2-.6s.3-.2.5-.2.4.1.5.2.2.3.2.6-.1.4-.2.6-.3.2-.5.2-.4-.1-.5-.2-.2-.3-.2-.6zM85.1 9.2c-.9 0-1.6-.3-2.2-.9s-.7-1.3-.7-2.4c0-1.1.3-1.9.8-2.5s1.3-.9 2.2-.9c.3 0 .6 0 .9.1s.6.1.7.2l-.3.8c-.2-.1-.4-.2-.7-.2s-.5-.1-.7-.1c-1.3 0-2 .8-2 2.5 0 .8.2 1.4.5 1.8s.8.6 1.4.6c.5 0 1.1-.1 1.6-.3v.9c-.3.3-.8.4-1.5.4zM93.8 5.9c0 1-.3 1.9-.8 2.5s-1.3.9-2.2.9c-.6 0-1.1-.1-1.5-.4s-.8-.7-1-1.2-.4-1.1-.4-1.8c0-1 .3-1.9.8-2.4s1.2-.9 2.2-.9c.9 0 1.6.3 2.1.9s.8 1.4.8 2.4zm-4.9 0c0 .8.2 1.4.5 1.9s.8.6 1.4.6 1.1-.2 1.5-.6.5-1.1.5-1.9c0-.8-.2-1.4-.5-1.9s-.8-.6-1.5-.6c-.6 0-1.1.2-1.4.6s-.5 1.1-.5 1.9z"/>
    </g>
    <g id="website-label">
      <path fill="#fff" d="M6.1 9.1L5 5.3c-.1-.2-.2-.7-.5-1.5-.2.7-.3 1.2-.4 1.6L2.9 9.1H1.8L0 2.7h1c.4 1.6.7 2.8 1 3.7s.3 1.4.4 1.7c0-.2.1-.5.2-.9s.2-.6.2-.8L4 2.7h1.1l1.1 3.7c.2.7.4 1.2.4 1.7 0-.1.1-.4.1-.7s.5-1.9 1.2-4.7h1L7.3 9.1H6.1zM12.9 9.2c-.9 0-1.7-.3-2.2-.9S9.9 7 9.9 6c0-1 .3-1.9.8-2.5s1.2-.9 2.1-.9c.8 0 1.4.3 1.9.8s.7 1.2.7 2.1v.6H11c0 .8.2 1.3.6 1.7s.9.6 1.5.6c.7 0 1.4-.1 2.1-.4v.9c-.3.1-.7.3-1 .3h-1.3zm-.2-5.8c-.5 0-.9.2-1.2.5s-.5.8-.6 1.4h3.4c0-.6-.1-1.1-.4-1.4s-.7-.5-1.2-.5zM20 2.6c.8 0 1.5.3 2 .9s.7 1.4.7 2.4-.2 1.9-.7 2.5-1.1.9-2 .9c-.4 0-.8-.1-1.1-.2s-.6-.4-.9-.7h-.1l-.2.8H17V0h1v3.5c.4-.6 1.1-.9 2-.9zm-.2.8c-.7 0-1.1.2-1.4.6S18 5 18 5.9s.2 1.5.5 1.9.8.6 1.4.6c.6 0 1-.2 1.3-.7s.4-1.1.4-1.9c0-.8-.1-1.5-.4-1.9s-.8-.5-1.4-.5zM28.5 7.4c0 .6-.2 1.1-.7 1.4s-1.1.5-1.9.5c-.9 0-1.5-.1-2-.4v-1c.3.2.6.3 1 .4s.7.1 1 .1c.5 0 .9-.1 1.2-.2s.4-.4.4-.7c0-.2-.1-.5-.3-.6s-.6-.4-1.3-.6c-.6-.2-1-.4-1.3-.6s-.4-.5-.5-.7-.2-.5-.2-.8c0-.5.2-.9.6-1.2s1-.5 1.8-.5c.7 0 1.4.1 2 .4l-.3.9c-.6-.3-1.2-.4-1.8-.4-.5 0-.8.1-1 .2s-.4.4-.4.6c0 .2 0 .3.1.4s.2.2.4.3.6.3 1.1.5c.8.3 1.3.6 1.5.8s.6.7.6 1.2zM30 1c0-.2.1-.4.2-.5s.2-.2.4-.2.3.1.4.2.2.3.2.5-.1.4-.2.5-.2.2-.4.2-.3-.1-.4-.2-.2-.3-.2-.5zm1 8.1h-1V2.7h1v6.4zM35.2 8.4h.5s.3-.1.4-.1V9c-.1.1-.3.1-.5.1H35c-1.2 0-1.9-.7-1.9-2V3.5h-.9V3l.9-.4.4-1.4h.6v1.5H36v.8h-1.9v3.8c0 .4.1.7.3.9s.4.2.8.2zM40 9.2c-.9 0-1.7-.3-2.2-.9S37 7 37 6c0-1 .3-1.9.8-2.5s1.2-.9 2.1-.9c.8 0 1.4.3 1.9.8s.7 1.2.7 2.1v.6H38c0 .8.2 1.3.6 1.7s.9.6 1.5.6c.7 0 1.4-.1 2.1-.4v.9c-.3.1-.7.3-1 .3H40zm-.2-5.8c-.5 0-.9.2-1.2.5s-.6.8-.6 1.4h3.4c0-.6-.1-1.1-.4-1.4s-.7-.5-1.2-.5z"/>
    </g>
    <g id="ui-iphone-w-shadow">
      <path fill="#000" fill-opacity=".33" d="M280 558H0V251.4L81 80l68-80h131" clip-path="url(#dropShadow01)" style="filter: url(#blurFilter01);" />
      <path fill="#CCC" d="M280 554c0 2.2-1.8 4-4 4H4c-2.2 0-4-1.8-4-4v-32c0-2.2 1.8-4 4-4h272c2.2 0 4 1.8 4 4v32z"/>
      <!-- <path fill="#FFF" d="M0 40h280v498H0z"/> -->
      <path fill="#CCC" d="M0 20h280v20H0z"/>
      <path fill="#CCC" d="M280 36c0 2.2-1.8 4-4 4H4c-2.2 0-4-1.8-4-4V4c0-2.2 1.8-4 4-4h272c2.2 0 4 1.8 4 4v32z"/>
      <path fill="#FFF" d="M228 28.5c0 2.2-1.7 4-4 4H24c-2 0-4-1.8-4-4v-17c0-2.2 2-4 4-4h200c2.3 0 4 1.8 4 4v17z"/>
      <g fill="none" stroke="#FFF" stroke-width="2" stroke-linecap="round" stroke-miterlimit="10">
        <path d="M244 20h16M244 25h16M244 15h16"/>
      </g>
    </g>
  </defs>
  <g transform="translate(0,0)" class="ui-phone ui-phone--front">
    <use xlink:href="#ui-iphone-w-shadow" />
    <path class="ui-phone__screen" fill="#444" d="M0 40h280v498H0z"/>
    <use x="28" y="15" xlink:href="#seekout-url" />
  </g>
</svg>